<?xml version="1.0" encoding="utf-8"?>
<!-- Generator: Adobe Illustrator 23.0.6, SVG Export Plug-In . SVG Version: 6.00 Build 0)  -->
<svg version="1.1" id="图层_1" xmlns="http://www.w3.org/2000/svg" xmlns:xlink="http://www.w3.org/1999/xlink" x="0px" y="0px"
	 viewBox="0 0 24 24" style="enable-background:new 0 0 24 24;" xml:space="preserve">
<style type="text/css">
	.st0{fill:#FFFFFF;}
	.st1{fill:none;stroke:#FFFFFF;stroke-width:2;stroke-linecap:round;stroke-linejoin:round;stroke-miterlimit:10;}
</style>
<path class="st0" d="M3,18.5v-2h2v2H3z M3,15v-2h2v2H3z M3,11.5v-2h2v2H3z M6.5,22v-2h2v2H6.5z M10,22v-2h2v2H10z M5,22
	c-0.5,0-1-0.2-1.4-0.6S3,20.5,3,20h2V22z M13.5,22v-2h2c0,0.6-0.2,1-0.6,1.4S14.1,22,13.5,22z M3,8c0-0.5,0.2-1,0.6-1.4
	C4,6.2,4.5,6,5,6v2H3z"/>
<rect x="8.2" y="7" class="st0" width="6.5" height="10"/>
<rect x="8.1" y="2.8" class="st1" width="11.3" height="14.2"/>
</svg>
